<?xml version="1.0" standalone="no"?>
<!DOCTYPE svg PUBLIC "-//W3C//DTD SVG 20010904//EN"
 "http://www.w3.org/TR/2001/REC-SVG-20010904/DTD/svg10.dtd">
<svg version="1.0" xmlns="http://www.w3.org/2000/svg"
 width="260.000000pt" height="260.000000pt" viewBox="0 0 260.000000 260.000000"
 preserveAspectRatio="xMidYMid meet">
<metadata>
Created by potrace 1.14, written by Peter Selinger 2001-2017
</metadata>
<g transform="translate(0.000000,260.000000) scale(0.100000,-0.100000)"
fill="#000000" stroke="none">
<path d="M0 1300 l0 -1300 1300 0 1300 0 0 1300 0 1300 -1300 0 -1300 0 0
-1300z m482 813 c8 -10 48 -79 88 -153 119 -219 135 -248 218 -400 44 -79 84
-146 89 -147 5 -2 32 36 59 84 28 49 113 196 189 328 76 132 146 252 154 267
9 16 18 28 21 28 3 0 97 -160 210 -355 113 -195 209 -354 214 -352 5 2 93 157
196 344 102 188 192 348 199 357 11 14 42 16 197 16 136 0 184 -3 184 -12 0
-7 -37 -80 -82 -162 -45 -83 -134 -248 -198 -366 -358 -658 -472 -872 -467
-876 3 -3 57 33 121 81 65 47 123 88 129 91 8 3 23 -14 37 -38 13 -24 63 -111
112 -195 48 -84 88 -157 88 -163 0 -7 -62 -10 -192 -8 l-191 3 -38 61 c-20 33
-48 81 -61 105 -13 24 -31 55 -39 69 -9 14 -72 122 -139 240 -220 385 -272
471 -282 468 -5 -2 -62 -93 -125 -203 -63 -110 -156 -270 -206 -355 -96 -165
-105 -181 -157 -275 -19 -33 -42 -72 -52 -88 l-19 -27 -190 0 c-153 0 -190 3
-187 13 5 22 221 397 229 397 3 0 62 -41 130 -90 67 -50 127 -90 132 -90 5 0
-2 19 -16 43 -13 23 -98 177 -187 342 -90 165 -200 368 -245 450 -45 83 -115
211 -155 285 -40 74 -90 167 -111 206 -22 39 -39 77 -39 83 0 8 55 11 183 11
163 0 186 -2 199 -17z"/>
</g>
</svg>
